<svg xmlns="http://www.w3.org/2000/svg" viewBox="0 0 681.74 208.37"><defs><style>.cls-1,.cls-2{fill:#fff}.cls-1{fill-rule:evenodd}</style></defs><title>koloro-logo</title><g id="Слой_2" data-name="Слой 2"><g id="Слой_9" data-name="Слой 9"><path class="cls-1" d="M92.77 186.25h12.79a7 7 0 0 1 4.91 1.58 5.1 5.1 0 0 1 1.71 3.91 4.88 4.88 0 0 1-1.23 3.35 5.39 5.39 0 0 1-2.39 1.48 6.17 6.17 0 0 1 3.51 2 5.43 5.43 0 0 1 1.12 3.52 6.08 6.08 0 0 1-.8 3.1 5.88 5.88 0 0 1-2.19 2.18 7.33 7.33 0 0 1-2.59.73 29.76 29.76 0 0 1-3.06.3H92.77v-22.15zm6.88 8.63h3a3.41 3.41 0 0 0 2.22-.55 2 2 0 0 0 .62-1.58 1.89 1.89 0 0 0-.62-1.5 3.35 3.35 0 0 0-2.18-.54h-3v4.18zm0 8.75h3.49a3.88 3.88 0 0 0 2.5-.63 2.15 2.15 0 0 0 .73-1.7 2 2 0 0 0-.72-1.58 4 4 0 0 0-2.52-.6h-3.47zm37.63 4.74v-22.12h11.37a16.24 16.24 0 0 1 4.83.55 5.13 5.13 0 0 1 2.7 2 6.26 6.26 0 0 1-1.91 8.93 8.31 8.31 0 0 1-2.39.87 6.91 6.91 0 0 1 1.77.81 7.11 7.11 0 0 1 1.09 1.16 8.68 8.68 0 0 1 1 1.38l3.32 6.4h-7.72l-3.64-6.75a5.16 5.16 0 0 0-1.23-1.71 2.88 2.88 0 0 0-1.66-.51h-.6v9zm6.88-13.14H147a9.77 9.77 0 0 0 1.79-.3 1.78 1.78 0 0 0 1.09-.7 2.27 2.27 0 0 0-.25-2.93 4 4 0 0 0-2.52-.58h-3zm54.31 9.47h-7.71l-1.11 3.66h-7l8.23-22.11h7.53l8.28 22.11h-7.15l-1.1-3.66zm-1.45-4.8l-2.4-7.9-2.4 7.93zm35.64-13.65h6.39l8.33 12.25v-12.25h6.44v22.12h-6.44l-8.29-12.19v12.19h-6.43v-22.12zm49.48 0h10.13a12.1 12.1 0 0 1 4.84.81 7.91 7.91 0 0 1 3 2.34 9.71 9.71 0 0 1 1.74 3.54 16.44 16.44 0 0 1 .54 4.28 15 15 0 0 1-.81 5.5 9.12 9.12 0 0 1-2.24 3.28 7.3 7.3 0 0 1-3.07 1.76 15.82 15.82 0 0 1-4.07.6h-10.06v-22.11zm6.83 5v12.07h1.66a6.93 6.93 0 0 0 3-.47 3.24 3.24 0 0 0 1.41-1.65 10.54 10.54 0 0 0 .51-3.84q0-3.52-1.14-4.81a4.79 4.79 0 0 0-3.77-1.3zm68.17-5.01h9.71a11.6 11.6 0 0 1 4.64.78 7.55 7.55 0 0 1 2.92 2.24 9.29 9.29 0 0 1 1.68 3.4 15.83 15.83 0 0 1 .52 4.11 14.31 14.31 0 0 1-.77 5.28 8.73 8.73 0 0 1-2.14 3.13 7 7 0 0 1-2.95 1.69 15 15 0 0 1-3.9.57h-9.71v-21.2zm6.54 4.81v11.57h1.59a6.73 6.73 0 0 0 2.9-.45 3.09 3.09 0 0 0 1.35-1.59 10.08 10.08 0 0 0 .48-3.68q0-3.36-1.09-4.61a4.61 4.61 0 0 0-3.62-1.24zm38.04-4.81h17.53v4.55h-10.98v3.35h10.17v4.32h-10.17v4.17h11.3v4.81h-17.85v-21.2zm41.91 14.24l6.22-.39a4.71 4.71 0 0 0 .82 2.3 3.45 3.45 0 0 0 2.87 1.27 3.18 3.18 0 0 0 2.15-.66 2 2 0 0 0 .75-1.53 2 2 0 0 0-.7-1.48 8.2 8.2 0 0 0-3.32-1.24 14.19 14.19 0 0 1-6.14-2.57 5.2 5.2 0 0 1-1.84-4.1 5.58 5.58 0 0 1 .94-3.09 6.27 6.27 0 0 1 2.84-2.29 13.1 13.1 0 0 1 5.2-.84 10.65 10.65 0 0 1 6.17 1.5 6.53 6.53 0 0 1 2.54 4.79l-6.17.36a2.86 2.86 0 0 0-3.19-2.7 2.58 2.58 0 0 0-1.71.49 1.51 1.51 0 0 0-.57 1.18 1.21 1.21 0 0 0 .46.91 5.41 5.41 0 0 0 2.19.78 27.7 27.7 0 0 1 6.13 1.87 6.5 6.5 0 0 1 2.7 2.35 6 6 0 0 1 .85 3.14 6.73 6.73 0 0 1-1.13 3.77 7 7 0 0 1-3.15 2.61 12.64 12.64 0 0 1-5.09.89q-5.4 0-7.48-2.08a8.16 8.16 0 0 1-2.34-5.24z"/><path class="cls-2" d="M486.9 186.24h6.54v21.19h-6.54z"/><path class="cls-1" d="M528.23 199.71v-4.38h10.12v9.07a20.9 20.9 0 0 1-5.14 2.71 17.47 17.47 0 0 1-5.3.72 12.92 12.92 0 0 1-6.15-1.28 8.89 8.89 0 0 1-3.69-3.84 12.64 12.64 0 0 1-1.3-5.85 12.13 12.13 0 0 1 1.43-6 9.22 9.22 0 0 1 4.19-3.9 13.64 13.64 0 0 1 5.8-1 16.16 16.16 0 0 1 5.25.64 6.79 6.79 0 0 1 2.89 2 8.76 8.76 0 0 1 1.74 3.39l-6.33 1.01a3.4 3.4 0 0 0-1.33-1.85 4.13 4.13 0 0 0-2.38-.64 4.29 4.29 0 0 0-3.44 1.51 7.2 7.2 0 0 0-1.29 4.74c0 2.3.43 3.94 1.3 4.93a4.55 4.55 0 0 0 3.62 1.48 6.69 6.69 0 0 0 2.1-.33 10.94 10.94 0 0 0 2.29-1.1v-2zm27.22-13.47h6.12l8 11.75v-11.75h6.16v21.2h-6.16l-7.95-11.68v11.68h-6.17v-21.2z"/></g><g id="Слой_3" data-name="Слой 3"><path class="cls-1" d="M451.56 165.3v-114h32.52q19.06 0 26.58 1.75a34.36 34.36 0 0 1 13 5.87 30.91 30.91 0 0 1 9.46 11.91 38 38 0 0 1 3.3 16c0 12.2-7 29.69-20.08 32.52l31.09 46h-35.11l-31.58-44.65v44.6zm29.18-60.11h5.74q10 0 14.67-3.43T505.77 91q0-8.57-4.3-12.2c-2.9-2.42-7.71-3.61-14.51-3.61h-6.22zM0 165.3v-114h30.77v51.79L66.81 51.3H103l-42.09 55.59 45.76 58.41H67.9l-37.13-51.16v51.16H0z"/><path class="cls-1" d="M224.3 108.54a58 58 0 0 1-17.67 42.28 62.54 62.54 0 0 1-19.93 13 62.15 62.15 0 0 1-46.67 0 59.84 59.84 0 0 1-19.64-13A57.92 57.92 0 0 1 107 131.5a58.41 58.41 0 0 1 13.37-65.24 60 60 0 0 1 19.64-13 62.49 62.49 0 0 1 46.8 0 60.68 60.68 0 0 1 19.8 13 58.25 58.25 0 0 1 17.67 42.28zM163.39 142a27.39 27.39 0 0 0 21.37-9.49q8.45-9.53 8.45-24 0-14.32-8.56-23.92a28.55 28.55 0 0 0-42.62 0q-8.45 9.53-8.45 23.95 0 14.62 8.32 24t21.49 9.46zm77.8 23.3v-114h31.09v87.37h35.87v26.63h-66.96zM669 108.54a58.12 58.12 0 0 0-10.61-34 11.05 11.05 0 0 1-14.44-14.46 62.32 62.32 0 0 0-59.21-6.79 60 60 0 0 0-19.64 13 58.51 58.51 0 0 0 0 84.56 59.82 59.82 0 0 0 19.64 13 62.13 62.13 0 0 0 46.66 0 62.49 62.49 0 0 0 19.93-13A58 58 0 0 0 669 108.54zM608.05 142q-13.14 0-21.5-9.44t-8.32-24q0-14.4 8.45-23.95a28.55 28.55 0 0 1 42.62 0q8.58 9.61 8.56 23.92 0 14.47-8.46 24a27.38 27.38 0 0 1-21.35 9.47zm-173.61-33.46a58 58 0 0 1-17.68 42.28 62.56 62.56 0 0 1-19.92 13 62.16 62.16 0 0 1-46.67 0 59.87 59.87 0 0 1-19.64-13 58 58 0 0 1-13.37-19.32 58.42 58.42 0 0 1 13.37-65.24 60 60 0 0 1 19.64-13 62.49 62.49 0 0 1 46.8 0 60.62 60.62 0 0 1 19.8 13 58.26 58.26 0 0 1 17.68 42.28zM373.53 142a27.4 27.4 0 0 0 21.37-9.49q8.45-9.53 8.45-24 0-14.32-8.56-23.92a28.55 28.55 0 0 0-42.62 0q-8.45 9.53-8.45 23.95 0 14.62 8.32 24t21.49 9.46z"/></g><path class="cls-1" d="M333.6 50c.75-.39 1.49-.72 2.24-1.08a72.14 72.14 0 0 1 76.32.46c.43.21.86.4 1.29.62h.05c1.81-16.08 3.7-32.33 5.32-48.29a5.2 5.2 0 1 0-3.49 9.77v.63c-.08 5.45-6.63 11.42-12.58 11.2-8.42-.32-11.23-8.07-12.66-13.23a5.19 5.19 0 1 0-3.6-.09c-4.13 13.64-21.42 14.91-25.94 0a5.2 5.2 0 1 0-3.6.09c-1.43 5.15-4.24 12.91-12.65 13.23-6 .22-12.5-5.75-12.58-11.2v-.63a5.2 5.2 0 1 0-3.48-9.77c1.61 16 3.52 32.21 5.32 48.29z" id="Слой_2-2" data-name="Слой 2"/><path class="cls-1" d="M670.7 35.15a11 11 0 1 1-11 11 11 11 0 0 1 11-11z" id="Слой_20" data-name="Слой 20"/></g></svg>